<svg id="Layer_1" data-name="Layer 1" xmlns="http://www.w3.org/2000/svg" viewBox="0 0 971.41 972.97"><defs><style></style></defs><path className="cls-1" d="M622.24,463.59c42.93,65.75,84.15,128.92,125.41,192.06q93.47,143.05,187,286.1c5.23,8,11.47,15.8,9.34,26.36-1.78,8.84-7,14.75-16,16.87-12.68,3-21-3.18-27.52-13.16q-36.09-55.14-72.22-110.23Q703.2,670.23,578.47,478.67c-8-12.39-16.6-17.76-31.51-17.14q-48.15,2-96.4.91c-13.9-.3-22.37,4-30.1,15.86Q262.63,720.74,103.92,962.62c-2.63,4-5.1,8.16-7.93,12-8.51,11.64-19.6,15.76-32.06,7.5-12.73-8.44-12.34-20.61-5-32.58,10.09-16.36,20.66-32.41,31.18-48.49Q231.71,684.87,373.27,468.66c.65-1,.48-2.52.85-4.76q-62.69,0-124.94,0c-12.5,0-15.6,8.56-17.59,18.81C222,531.84,212.17,580.89,202.47,630c-6,30.55-9.2,33.17-40.81,33.17-39.83,0-79.66-.18-119.5.07-15.68.1-27.78-3.75-27.34-22.38.41-17.14,12.21-21.4,26.7-21.62,11-.17,22-.74,32.95.06,14.69,1.08,19.08-5.52,18.89-19.42-.57-39.83-.66-79.67.08-119.49.25-13.83-4.69-18.48-18-17.06-6.72.72-13.67-.79-20.52-1.07C15,460.56,14.42,460,14.45,421.05c0-18.55.58-37.11-.12-55.63-.72-19.16,8.71-28.08,26.83-28.77,15.77-.61,31.58-.29,47.37-.54,12.19-.19,25,2.39,25.29-17.53.31-19.56-11.36-18.33-24.24-18.16-17.17.22-34.34,0-51.51,0-13.63,0-22.63-5.54-23.3-20.18-.72-15.51,8.26-22.37,22.59-23.53,6.14-.49,12.35-.24,18.53-.25,57.54,0,57.54,0,57.54-58.56,0-48.76-.09-97.52,0-146.28.08-30.41,7.29-37.69,37.53-37.94,19.92-.16,39.85-.41,59.74.36,14.86.57,28.2,6,28.31,23.39.12,17.67-13.24,22.17-28.2,23.18-1.37.09-2.75.09-4.12.14-46.57,1.78-46.58,1.78-46.59,47.78,0,67.3.58,134.61-.35,201.9-.27,19.79,6.45,26.08,26.09,26q303.89-.81,607.77,0c20.46.06,25.47-7.34,25.24-26.45-.88-72.79-.34-145.59-.36-218.38,0-30.8,0-30.84-30-30.85q-193.66,0-387.33,0c-9.57,0-19.22.69-28.52-2.8-9.12-3.43-15.3-9.09-15.72-19.38-.46-11.07,5.43-17.86,15.14-22.12,7.2-3.15,14.76-2.8,22.29-2.8q215.31,0,430.6,0c33.57,0,39.92,6.3,40,39.59.16,58.38,0,116.75,0,175.12,0,28,0,28,28.84,28,15.1,0,30.22-.28,45.32.22s25.72,8,25.18,23.77c-.52,15.28-11.69,20.21-25.88,20-19.23-.23-38.46.27-57.69-.05-11.68-.2-15.71,5.49-15.72,16.42s2.14,19.19,15.43,19.17c23.35,0,46.71-.45,70,.32,28.34.94,34.87,8.11,35,36.21.12,19.91.28,39.84-.06,59.75-.38,22.3-7.25,29.17-29.62,30.49-7.53.44-15.09.52-22.63.69-29.83.69-29.78.68-29.74,31.69,0,35,.45,70.06-.28,105.07-.3,14.36,4.89,19.91,19.18,19.06a300.26,300.26,0,0,1,39.11.37c14.12,1,24.07,8.77,23,23.6-1,13.37-10.17,20-24.18,19.89q-68-.36-136-.06c-17.28,0-23.82-10.32-26.76-25.44-9.54-49.11-20.34-98-28.71-147.29-3.58-21.11-12.39-28.31-33.8-27.27C698.9,464.86,662.57,463.59,622.24,463.59Zm-124.33-81q-209,0-418-.15c-13.44,0-22.11,1.56-21.81,18.63s10.22,16.6,21.81,16.36c8.92-.18,17.85-.18,26.77.05,24.14.6,32.22,7.89,32.84,32.12.74,28.81.25,57.65.26,86.48,0,22-.2,43.93,0,65.89.06,6.6-1.15,14.88,8.36,16.35,11,1.7,11-8,13.51-14.67,1-2.51.82-5.41,1.35-8.1,9.85-49.73,20-99.41,29.45-149.23,3.77-19.91,13.62-29.22,34.94-29.17q271.8.7,543.61.1c19.67,0,30.36,7.52,34.14,27.41,10,52.49,21.09,104.76,31.62,157.13,1.66,8.25,2.43,17.88,13.82,16.64,12.48-1.37,8.58-12.3,8.65-19.71.36-39.8.18-79.62.18-119.43,0-61.37,0-61.37,60.52-61.89,20.37-.18,25.54-7.62,18.72-26.09-4.42-11.94-14.48-8.54-22.73-8.55Q706.92,382.41,497.91,382.54Z" transform="translate(-14.29 -13.52)"/><path className="cls-1" d="M476.51,741.07q0-105,0-210.05c0-15.36,1.54-30.33,21.47-30.83,20.66-.52,24.55,14.79,24.58,30.91q.38,211.08.17,422.16a49.08,49.08,0,0,1-.71,8.2c-2.26,13.22-7.77,24.7-23,24.3-15.88-.41-22.6-11.49-22.74-26.41-.27-29.51-.12-59-.13-88.55q0-64.86,0-129.73Z" transform="translate(-14.29 -13.52)"/><path className="cls-1" d="M481.8,215.71c0,21.8.39,38.95-.12,56.08-.43,14.75-4.38,28.33-22.59,28.29-17.51-.05-22.34-12.46-23.77-27.67-.91-9.67,5.22-22.93-6.33-28-12.48-5.49-27-2.8-40.61-1.3-8,.89-8.21,8-8.36,14.34-.19,8.22.33,16.53-.68,24.65-1.48,12-9.21,17.84-21.14,18.1-12.22.26-21.12-6.37-21.32-17.76-.75-43.14-2.52-86.52,1.13-129.39,2.73-32.07,36.3-56.66,68.43-57.3,35.25-.7,64,21,72.47,55C484.68,173.72,480.55,197.17,481.8,215.71ZM407.55,195c14.93.65,29.72,2.58,28.07-20.68C434.17,154,424.23,140,408,140.15c-16.5.11-27.28,15.56-28.26,36.45C378.62,200.06,394.93,194.16,407.55,195Z" transform="translate(-14.29 -13.52)"/><path className="cls-1" d="M517.3,197.09c0-24-.23-48,.08-72,.29-22.5,6.94-28.77,29.86-29.33.68,0,1.37,0,2.06,0,95.19-1.39,138.28,57.84,109,149.82-9.88,31-40,54-72.42,54.83-14.4.37-28.82-.07-43.22.1-17.11.21-25.28-8.29-25.27-25.16,0-13-.06-26.07-.07-39.11S517.3,210.12,517.3,197.09Zm44.11.17h-.1c0,12.35-.09,24.7,0,37,.19,21.39,7.35,27.23,27.7,21,15.63-4.76,26.21-15.42,27.19-32.47a380.71,380.71,0,0,0,.1-47.29c-1.46-21.95-18.25-36-39.94-35.87-10.26,0-15.31,3.62-15,14.36C561.67,168.45,561.41,182.86,561.41,197.26Z" transform="translate(-14.29 -13.52)"/><path className="cls-1" d="M195.9,197c0-13-.28-26,.06-39s7.48-20.12,20.51-20.78c13.24-.67,21.9,6.69,22.44,18.92,1.22,28,1.25,56.1.11,84.09-.54,13.29-10,21.27-23.7,20.17-12.76-1-19.13-9.66-19.35-22.35C195.75,224.33,195.92,210.65,195.9,197Z" transform="translate(-14.29 -13.52)"/><path className="cls-1" d="M783.57,198.84c0,13,.66,26-.14,38.95-.87,14.31-9,23.61-23.7,22.5-13.51-1-19.82-10.35-19.73-24.09.15-25.29-.11-50.58-.07-75.87,0-13.44,5.56-22.59,20.13-23.26,15.65-.72,22.26,9.09,23.28,22.83C784.3,172.82,783.55,185.86,783.57,198.84Z" transform="translate(-14.29 -13.52)"/><path className="cls-1" d="M298.16,59.24c-13.66-1.12-22.08-8.92-22.36-22.15-.25-12.41,7.73-20.89,20.39-21.44,13.42-.59,22.63,6.79,23.22,20.62S311.66,57.48,298.16,59.24Z" transform="translate(-14.29 -13.52)"/></svg>
