<svg id="Layer_1" data-name="Layer 1" xmlns="http://www.w3.org/2000/svg" viewBox="0 0 367.18 487.71"><path d="M369,241.2q0,34.44,0,68.89c0,31.06-17.54,56.5-46.61,67.44-3,1.13-2.76,2.29-1.83,4.65q19.31,49.45,38.49,99c2.82,7.25-.89,13.23-7.75,12.56-3.49-.34-5.61-2.42-6.84-5.59-2.55-6.57-5.24-13.1-7.63-19.73-.86-2.37-1.91-3.38-4.59-3.38q-82.74.12-165.49,0c-2.46,0-3.6.79-4.42,3.06-2.3,6.38-4.82,12.68-7.32,19-2.27,5.71-6.31,8-10.94,6.24-4.81-1.79-6.3-6.25-4-12.28q19-48.94,38.07-97.83c1.4-3.58,1.3-5-2.75-6.6a69.64,69.64,0,0,1-44.24-64.92c-.06-47.15-.46-94.31.15-141.45.37-29.45,15.07-50.55,41.43-63.56a6.4,6.4,0,0,1,6.1-.11c9.22,4.22,17.75,2.68,25.27-4a6.85,6.85,0,0,1,5.07-1.92c6.8.09,13.59.11,20.38,0a6.7,6.7,0,0,1,5,2.06,22.41,22.41,0,0,0,31,0,7,7,0,0,1,5.42-2c3.94.11,7.88.06,11.82,0,6-.05,11.52-.1,16.93,4.47,6.14,5.19,14.16,5,21.57,1.42a5.91,5.91,0,0,1,5.72,0c26.29,12.8,40.83,33.72,41.78,63,.77,23.89.15,47.82.15,71.74ZM253,243.46h44q22,0,44,0c8.73,0,13.56-4.88,13.59-13.63q0-13.65,0-27.29c-.12-25.49-19.5-45.25-45.08-45.4q-56.24-.33-112.46,0c-25.55.14-44.94,19.79-45.19,45.33-.09,8.83,0,17.66,0,26.48,0,9.87,4.6,14.52,14.36,14.52Zm-3.36,205.45c25.13,0,50.26-.06,75.39.07,3.62,0,4-.78,2.67-4-3-7.11-5.69-14.37-8.37-21.61-.82-2.21-1.94-3.09-4.43-3.08q-65.4.12-130.8,0c-2.43,0-3.59.76-4.42,3-2.61,7.13-5.45,14.18-8.19,21.25-1.67,4.31-1.67,4.33,2.77,4.33Zm-.14-44.67h57.82c4.53,0,4.53,0,2.84-4.39-1.91-4.93-4-9.79-5.66-14.8-.86-2.61-2-3.39-4.83-3.38q-50.69.18-101.39,0c-2,0-2.73.54-3.38,2.39-1.92,5.5-3.95,11-6.29,16.3-1.41,3.21-.88,4,2.66,4C210.69,404.17,230.11,404.24,249.52,404.24Zm61.85-55.54a28.63,28.63,0,1,0-28.57-28.9A28.63,28.63,0,0,0,311.37,348.7Zm-124.31,0a28.64,28.64,0,0,0,.95-57.27,28.64,28.64,0,1,0-.95,57.27Z" transform="translate(-66.41 -6.14)"/><path d="M66.53,228.43c0-36.42.15-72.84-.12-109.26a55.81,55.81,0,0,1,4.7-22.89c13.23-30.77,36.15-52.1,65.55-67,22.92-11.6,47.46-17.67,72.83-20.71a336.15,336.15,0,0,1,81.31,0c36.68,4.52,71.18,15,100.52,38.56,19.17,15.4,33.36,34.44,40.85,58.12a28.79,28.79,0,0,1,1.42,8.8q-.06,115,0,229.93a27.25,27.25,0,0,1-.09,3.26,7.8,7.8,0,0,1-6.94,6.89,8,8,0,0,1-8.55-5.44,18.24,18.24,0,0,1-.52-6.06q0-113.33,0-226.67c0-9.49-4.75-17.48-9.32-25.29-14.6-24.94-36.62-41.12-62.91-52-23.07-9.51-47.28-14-72.07-15.65-26.41-1.79-52.69-.84-78.73,4.13C165,32.86,137.71,43.13,114.84,63.12c-14,12.19-24.51,26.81-30.74,44.38a24.59,24.59,0,0,0-1.54,8.34q0,113.34,0,226.68a26.74,26.74,0,0,1-.4,5.66,7.9,7.9,0,0,1-15.56-1.12c-.12-1.35-.06-2.71-.06-4.07Z" transform="translate(-66.41 -6.14)"/><path d="M235.47,85.61a14.57,14.57,0,1,1,29.13.56,14.57,14.57,0,0,1-29.13-.56Z" transform="translate(-66.41 -6.14)"/><path d="M203,85.79a14.45,14.45,0,1,1-28.89.21A14.45,14.45,0,1,1,203,85.79Z" transform="translate(-66.41 -6.14)"/><path d="M326,85.75a14.4,14.4,0,0,1-14.28,14.63A14.56,14.56,0,0,1,297.08,86,14.46,14.46,0,1,1,326,85.75Z" transform="translate(-66.41 -6.14)"/><path d="M331.69,320a20.14,20.14,0,1,1-20.18-20.24A20.13,20.13,0,0,1,331.69,320Z" transform="translate(-66.41 -6.14)"/><path d="M207.63,320.05a20.19,20.19,0,0,1-20,20.29,20.27,20.27,0,1,1,20-20.29Z" transform="translate(-66.41 -6.14)"/></svg>