<?xml version="1.0" encoding="UTF-8" standalone="no" ?>
<!DOCTYPE svg PUBLIC "-//W3C//DTD SVG 1.1//EN" "http://www.w3.org/Graphics/SVG/1.1/DTD/svg11.dtd">
<svg xmlns="http://www.w3.org/2000/svg" xmlns:xlink="http://www.w3.org/1999/xlink" version="1.1" width="1080" height="1080" viewBox="0 0 1080 1080" xml:space="preserve">
<desc>Created with Fabric.js 5.2.4</desc>
<defs>
</defs>
<g transform="matrix(1 0 0 1 540 540)" id="4580c172-d096-4e58-be50-5964d047486f"  >
<rect style="stroke: none; stroke-width: 1; stroke-dasharray: none; stroke-linecap: butt; stroke-dashoffset: 0; stroke-linejoin: miter; stroke-miterlimit: 4; fill: rgb(255,255,255); fill-rule: nonzero; opacity: 1; visibility: hidden;" vector-effect="non-scaling-stroke"  x="-540" y="-540" rx="0" ry="0" width="1080" height="1080" />
</g>
<g transform="matrix(1 0 0 1 540 540)" id="57e015c0-9c6f-4994-9e1a-8f36279749c6"  >
</g>
<g transform="matrix(5.05 0 0 5.05 540 540)"  >
<g style=""   >
		<g transform="matrix(1 0 0 1 42.51 0.01)" id="Path_99"  >
<path style="stroke: none; stroke-width: 1; stroke-dasharray: none; stroke-linecap: butt; stroke-dashoffset: 0; stroke-linejoin: miter; stroke-miterlimit: 4; fill: rgb(90,91,94); fill-rule: nonzero; opacity: 1;" vector-effect="non-scaling-stroke"  transform=" translate(-280.74, -322.72)" d="M 341.557 315.145 L 337.807 315.145 C 335.96548827155914 315.1407626929732 334.1988462289477 315.87356264338376 332.901 317.18 C 332.33770982114106 317.74619897362675 331.8750809727311 318.40429527406957 331.533 319.12600000000003 C 331.09273735087396 320.0508686804228 330.86256944396746 321.06169509651073 330.85900000000004 322.086 L 330.85900000000004 341.957 C 330.8631805856676 342.0253933194837 330.8515463070913 342.0938302522853 330.82500000000005 342.157 C 330.79325000667876 342.2272967001954 330.74688755642507 342.2900223681857 330.689 342.341 L 330.63500000000005 342.402 C 330.46821614821886 342.51326689118065 330.2902470946483 342.6067760549211 330.10400000000004 342.681 C 328.26000000000005 343.464 323.92500000000007 343.967 319.059 343.967 C 316.94300000000004 343.967 314.874 343.86699999999996 313.07000000000005 343.695 C 308.9800000000001 343.28 307.77000000000004 342.606 307.49700000000007 342.409 L 307.4290000000001 342.348 L 307.3470000000001 342.248 L 307.2930000000001 342.159 C 307.2684643383475 342.0914394968569 307.25692825998937 342.01984795175235 307.2590000000001 341.948 L 307.2590000000001 322.168 C 307.2589078293397 321.54478769667844 307.2020057223168 320.9228811387459 307.0890000000001 320.31 C 306.9581142475809 319.6014652999437 306.7550562832973 318.9081865406981 306.4830000000001 318.241 C 306.067761877049 317.2572197814771 305.5031095038426 316.3434543818259 304.80900000000014 315.532 C 304.65300000000013 315.34799999999996 304.46200000000016 315.132 304.24400000000014 314.91299999999995 Q 304.1320000000001 314.80099999999993 303.99900000000014 314.68899999999996 C 302.27736040894086 313.3181429544986 300.2781501914669 312.33815801772016 298.14000000000016 311.81699999999995 C 294.79257852383984 310.9059363008086 291.36500771876234 310.32021853450857 287.90500000000014 310.0679999999999 C 285.5840000000001 309.87699999999995 283.1750000000001 309.7749999999999 280.74600000000015 309.7749999999999 C 279.48000000000013 309.7749999999999 278.20100000000014 309.8019999999999 276.9350000000002 309.8569999999999 C 273.0179681762558 309.99355901132094 269.12105194027225 310.4808408766243 265.29100000000017 311.31299999999993 C 263.0242510135404 311.7717422158375 260.8429970374324 312.58148847146924 258.8260000000002 313.7129999999999 C 258.3503180165251 313.99519978491054 257.9035060958916 314.32344242525596 257.4920000000002 314.6929999999999 C 257.4100000000002 314.7609999999999 257.3220000000002 314.8359999999999 257.2400000000002 314.9169999999999 C 256.8201878855576 315.3456904149298 256.4356095219592 315.8075188672162 256.0900000000002 316.2979999999999 C 255.7091276197311 316.8381633869731 255.3831755326873 317.41502823166934 255.1170000000002 318.01999999999987 L 255.0960000000002 318.05399999999986 L 255.0070000000002 318.24399999999986 C 254.8407084677507 318.65225356635784 254.69977385487866 319.0703818490967 254.5850000000002 319.49599999999987 C 254.46666790117663 319.9433075541757 254.37814019434074 320.39797249381223 254.32000000000022 320.85699999999986 C 254.2623370110646 321.27907044017786 254.2289487633536 321.7041028335389 254.22000000000023 322.1299999999999 L 254.22000000000023 341.95999999999987 C 254.22298357435756 342.02832379031213 254.2113935637718 342.0965003231695 254.18600000000023 342.15999999999985 L 254.14500000000024 342.22799999999984 L 254.05600000000024 342.3369999999998 L 254.00200000000024 342.3919999999998 C 253.79507249399867 342.5256057058077 253.57365699378298 342.6353070218237 253.34200000000024 342.7189999999998 C 252.84479283804 342.8994458224944 252.3355437478147 343.04480235415315 251.81800000000024 343.1539999999998 C 251.33500000000024 343.2629999999998 250.77700000000024 343.3539999999998 250.17800000000025 343.45399999999984 C 249.64700000000025 343.5289999999998 249.09600000000026 343.5969999999998 248.53800000000027 343.6539999999998 C 248.02100000000027 343.70899999999983 247.48300000000026 343.75399999999985 246.93200000000027 343.7969999999998 C 246.43200000000027 343.8379999999998 245.89800000000028 343.8719999999998 245.38000000000028 343.8969999999998 L 245.36000000000027 343.8969999999998 C 244.90400000000028 343.9239999999998 244.40700000000027 343.9379999999998 243.84900000000027 343.9519999999998 C 243.31800000000027 343.96599999999984 242.83500000000026 343.9719999999998 242.36500000000026 343.9719999999998 C 241.89500000000027 343.9719999999998 241.39900000000026 343.9649999999998 240.90900000000028 343.9519999999998 C 240.39200000000028 343.9379999999998 239.9290000000003 343.92499999999984 239.48000000000027 343.9039999999998 C 239.03100000000026 343.8829999999998 238.5480000000003 343.84999999999985 238.07100000000028 343.8149999999998 C 237.59400000000028 343.7799999999998 237.1390000000003 343.73999999999984 236.67100000000028 343.69199999999984 C 236.16100000000029 343.63799999999986 235.71100000000027 343.58299999999986 235.30300000000028 343.5289999999998 C 234.85400000000027 343.46099999999984 234.39800000000028 343.3929999999998 233.94900000000027 343.30499999999984 C 233.50000000000026 343.21699999999987 233.04400000000027 343.1209999999998 232.63600000000028 343.01899999999983 C 232.3230000000003 342.93699999999984 232.0850000000003 342.86899999999986 231.87400000000028 342.8009999999998 C 231.71800000000027 342.7529999999998 231.57400000000027 342.7009999999998 231.43200000000027 342.64399999999983 C 231.182356499909 342.56739340650563 230.95237034695953 342.43738639719743 230.75800000000027 342.26299999999986 L 230.73700000000028 342.2359999999999 C 230.63410319109747 341.9578239405393 230.59215715183538 341.6607914186101 230.6140000000003 341.3649999999999 L 230.6140000000003 297.424 C 230.61245430623498 296.34768124191345 230.36083813520713 295.28644296955116 229.87900000000027 294.32399999999996 C 229.54792944279012 293.65341513318776 229.1087238018623 293.04190574081906 228.57900000000026 292.51399999999995 C 227.85095573590516 291.7901143946638 226.9729927053295 291.2347310934404 226.00700000000026 290.88699999999994 C 225.25864719662096 290.61550152885127 224.46907390588422 290.4751103910382 223.67300000000026 290.4719999999999 L 219.91700000000026 290.4719999999999 C 218.87466153448136 290.4731079492788 217.89878045347598 290.98401698824375 217.30400000000026 291.8399999999999 C 216.9262083531678 292.37303314344786 216.7241519666292 293.01066437017175 216.72600000000025 293.66399999999993 L 216.72600000000025 341.98799999999994 C 216.725067542905 342.4555142233969 216.74776315653307 342.92277685691596 216.79400000000027 343.3879999999999 C 216.87918684446936 344.25582479079884 217.05960584770705 345.11164132660286 217.33200000000028 345.93999999999994 C 217.59892533802767 346.73132906671856 217.9687630874674 347.48411699489634 218.43200000000027 348.1789999999999 C 218.8718561274562 348.8324427081005 219.3881791286491 349.43101482196715 219.97000000000028 349.96199999999993 L 220.09300000000027 350.0709999999999 C 220.63466684333355 350.53945294248547 221.22039686714572 350.95438690446565 221.84200000000027 351.3099999999999 C 222.4843676829121 351.678050529852 223.1528213294377 351.998574053361 223.84200000000027 352.2689999999999 C 224.46800000000027 352.5139999999999 225.15500000000026 352.7449999999999 225.88400000000027 352.9499999999999 C 226.36700000000027 353.0859999999999 226.78400000000028 353.1949999999999 227.18400000000028 353.28999999999985 C 227.3950000000003 353.33799999999985 227.6200000000003 353.3899999999999 227.83700000000027 353.4329999999998 L 227.90500000000029 353.45399999999984 C 228.54500000000027 353.58999999999986 229.22500000000028 353.7189999999998 229.92600000000027 353.8419999999998 C 230.56600000000026 353.9509999999998 231.23900000000026 354.0529999999998 231.92600000000027 354.1419999999998 C 232.61300000000028 354.2309999999998 233.26700000000028 354.31199999999984 233.92000000000027 354.3799999999998 C 234.54600000000028 354.4409999999998 235.22000000000028 354.5029999999998 235.90700000000027 354.54999999999984 C 236.54700000000025 354.59799999999984 237.22000000000025 354.63899999999984 237.90100000000027 354.67899999999986 C 238.62900000000027 354.71299999999985 239.28900000000027 354.73999999999984 239.90900000000028 354.75399999999985 C 240.52900000000028 354.76799999999986 241.19500000000028 354.78099999999984 241.93000000000026 354.78799999999984 C 242.66500000000025 354.79499999999985 243.34500000000025 354.78799999999984 243.98500000000027 354.77399999999983 C 244.67200000000028 354.7669999999998 245.37300000000027 354.74699999999984 246.08500000000026 354.71299999999985 L 246.19400000000027 354.71299999999985 L 246.35700000000028 354.70599999999985 C 246.9350000000003 354.67899999999986 247.54100000000028 354.64499999999987 248.2220000000003 354.59699999999987 C 248.9430000000003 354.54899999999986 249.6850000000003 354.4879999999999 250.4130000000003 354.41999999999985 C 251.1890000000003 354.34499999999986 251.9510000000003 354.26399999999984 252.67200000000028 354.16799999999984 C 253.4720000000003 354.0679999999998 254.2510000000003 353.94399999999985 254.99200000000027 353.81399999999985 C 255.81500000000028 353.6709999999999 256.61200000000025 353.51399999999984 257.38100000000026 353.33799999999985 C 258.2380000000003 353.13799999999986 259.05500000000023 352.9159999999998 259.81000000000023 352.6779999999998 C 260.31000000000023 352.52099999999984 260.76900000000023 352.35799999999983 261.1910000000002 352.1949999999998 C 261.3820000000002 352.2699999999998 261.5860000000002 352.3449999999998 261.7970000000002 352.4189999999998 C 263.33121750402563 352.9533658176875 264.90195317088285 353.37646185050477 266.4970000000002 353.68499999999983 C 268.0080000000002 353.9909999999998 269.6480000000002 354.24999999999983 271.3700000000002 354.44699999999983 C 273.05800000000016 354.6469999999998 274.8340000000002 354.7869999999998 276.63000000000017 354.86899999999986 C 277.5760000000002 354.91699999999986 278.52200000000016 354.94399999999985 279.4610000000002 354.95799999999986 L 279.4610000000002 354.97199999999987 L 280.7400000000002 354.97199999999987 C 281.2300000000002 354.97199999999987 281.7470000000002 354.97199999999987 282.38000000000017 354.95799999999986 C 284.49600000000015 354.91699999999986 286.59200000000016 354.80199999999985 288.60700000000014 354.6109999999999 C 290.80026077624063 354.41139229847425 292.98111504667537 354.0932606407788 295.14000000000016 353.6579999999999 C 296.8898272788147 353.3118032203269 298.60826908245167 352.82249213455015 300.27800000000013 352.1949999999999 C 301.4714233413568 352.6458983906625 302.6946942011258 353.01344767931204 303.93900000000014 353.2949999999999 C 309.74048041166253 354.492119280348 315.6657636891465 354.98102398691134 321.5850000000002 354.7509999999999 L 321.67400000000015 354.7509999999999 C 326.42384792141735 354.6862759916847 331.14871272895414 354.051056478016 335.7470000000001 352.8589999999999 C 337.8404160587588 352.3545795265068 339.79838404054976 351.3989737483972 341.48400000000015 350.0589999999999 C 341.57205132562285 349.9912637912226 341.65402847285554 349.91597865600886 341.72900000000016 349.8339999999999 C 342.5141645228118 349.0508211789484 343.1669881484035 348.1453787887719 343.66200000000015 347.1529999999999 L 343.68300000000016 347.1049999999999 C 343.78896236540743 346.9102420430758 343.88443206160645 346.7099559671338 343.96900000000016 346.5049999999999 C 344.4878596779455 345.2633360050441 344.7540445331497 343.9307119534473 344.7520000000002 342.58499999999987 L 344.7520000000002 318.33 C 344.74375436334776 316.57049837713777 343.31651882594576 315.14772993061973 341.557 315.145 Z M 293.369 322.794 L 293.369 341.957 C 293.3693804012295 342.025136350031 293.35787468815676 342.0928170151646 293.33500000000004 342.157 C 293.3024741337199 342.22683868304176 293.2562220565177 342.28941502278593 293.199 342.341 L 293.14500000000004 342.395 C 292.89300000000003 342.59499999999997 291.79100000000005 343.246 288.10900000000004 343.695 C 285.8887137154929 343.9549691927216 283.6554447318772 344.08851794342365 281.42 344.09499999999997 L 281.257 344.102 C 279.147 344.12199999999996 277.004 344.034 275.112 343.878 C 272.9350362183722 343.790121136763 270.784549392146 343.36784862948014 268.73600000000005 342.626 C 268.5991417452659 342.5620095489725 268.4691405859884 342.48427689703334 268.34800000000007 342.39399999999995 L 268.2390000000001 342.28499999999997 C 268.2028518127987 342.2456027691671 268.174969047453 342.19935818274 268.1570000000001 342.14899999999994 C 268.13038400831283 342.0858505451315 268.11874693860227 342.01739719389286 268.1230000000001 341.94899999999996 L 268.1230000000001 322.794 C 268.1199548471258 322.7256723776108 268.1315470506673 322.657482945014 268.1570000000001 322.594 L 268.2050000000001 322.505 L 268.2800000000001 322.405 L 268.3280000000001 322.35799999999995 C 269.3350000000001 321.52099999999996 273.99700000000007 320.63599999999997 280.7480000000001 320.63599999999997 C 286.1480000000001 320.63599999999997 290.8400000000001 321.215 292.71800000000013 322.099 C 292.86461301781 322.1629334174459 293.00377722848566 322.2427432539298 293.13300000000015 322.337 L 293.20100000000014 322.405 C 293.2565631447811 322.45806848695 293.3025691906511 322.52031196077417 293.33700000000016 322.589 C 293.3591245829575 322.65504622420053 293.36994319413526 322.7243529520582 293.369 322.794 Z" stroke-linecap="round" />
</g>
		<g transform="matrix(1 0 0 1 -100.07 -0.08)" id="Path_100"  >
<path style="stroke: none; stroke-width: 1; stroke-dasharray: none; stroke-linecap: butt; stroke-dashoffset: 0; stroke-linejoin: miter; stroke-miterlimit: 4; fill: rgb(90,91,94); fill-rule: nonzero; opacity: 1;" vector-effect="non-scaling-stroke"  transform=" translate(-211.12, -322.65)" d="M 217.078 293.89 C 216.82030919013476 293.45310240242674 216.51694074575323 293.0448120540768 216.173 292.67199999999997 L 216.057 292.549 L 216.023 292.515 C 214.7242492833844 291.2091821309882 212.95871476221137 290.4746823434395 211.117 290.474 L 207.36 290.474 C 207.06964927806158 290.4759879388547 206.78107002652357 290.51942635594736 206.50300000000001 290.603 C 205.12712971384192 290.98589402599686 204.1735906379654 292.23685231662836 204.169 293.665 L 204.169 347.658 C 204.1854999318072 349.51477283313096 204.9080806343336 351.2956607496495 206.19 352.639 C 206.79668455526894 353.28011619928157 207.51638282292723 353.803872121812 208.313 354.184 L 208.313 354.184 C 209.1915632514626 354.6005591773506 210.15168581192432 354.81676607196897 211.124 354.817 L 214.88 354.817 L 216.159 354.81 L 216.159 354.545 C 217.31542658230427 354.0337050013356 218.06235200549386 352.8894121179601 218.065 351.625 L 218.051 297.425 C 218.05229410015133 296.1803604725731 217.7160263165402 294.9586681652088 217.078 293.89 Z" stroke-linecap="round" />
</g>
		<g transform="matrix(1 0 0 1 -57.32 -0.08)" id="Path_101"  >
<path style="stroke: none; stroke-width: 1; stroke-dasharray: none; stroke-linecap: butt; stroke-dashoffset: 0; stroke-linejoin: miter; stroke-miterlimit: 4; fill: rgb(90,91,94); fill-rule: nonzero; opacity: 1;" vector-effect="non-scaling-stroke"  transform=" translate(-234.04, -322.65)" d="M 259.712 298.86 C 259.1922324248105 297.6122107827044 258.43136818735195 296.47924009593044 257.473 295.526 C 257.3936485848141 295.4462620984736 257.3094912543308 295.3714555824884 257.221 295.302 C 255.635 293.86600000000004 252.845 292.709 248.93200000000002 291.872 C 246.14908152220767 291.29394043716746 243.32980375647105 290.9073672711379 240.494 290.71500000000003 C 238.46600000000004 290.56500000000005 236.36300000000003 290.48400000000004 234.26000000000002 290.47700000000003 C 233.45000000000002 290.47 232.60600000000002 290.47700000000003 231.76000000000002 290.497 C 228.70647243187196 290.56280493718026 225.6593429540086 290.8058807929642 222.63400000000004 291.225 C 219.70117284293786 291.57781747807815 216.82611288944446 292.307505946518 214.08 293.396 C 213.00390018756926 293.8269382876209 212.00773672950646 294.4353855982803 211.133 295.196 C 211.06313194799696 295.25622776313617 210.9963787055426 295.3199771096801 210.93300000000002 295.387 L 210.103 296.224 L 210.137 296.272 C 209.67872221831266 296.83709834232775 209.27680924592832 297.445661568013 208.937 298.089 C 208.65519598598223 298.6382487197826 208.41841922075565 299.20945594436876 208.229 299.797 C 207.81621167731421 301.1396981283958 207.60524095667776 302.53628385733754 207.603 303.94100000000003 L 207.596 304.377 L 207.603 305.588 L 207.596 323.254 C 207.58098397582933 323.469667864258 207.59003982050268 323.686337333109 207.623 323.90000000000003 C 207.7121859255835 324.51412741174204 207.84417401045744 325.1212726021622 208.018 325.71700000000004 C 208.54182986373067 327.5665230702859 209.55512777043222 329.240382039931 210.951 330.56200000000007 C 211.21699999999998 330.8070000000001 211.509 331.0520000000001 211.87 331.32400000000007 C 213.340299104832 332.39255985740624 215.00460368466406 333.16459339005075 216.77 333.5970000000001 C 219.06996746465438 334.2122682927017 221.41648661966042 334.6380264005014 223.786 334.8700000000001 C 228.84404055487826 335.25475679566625 233.9285724388037 335.10425545636355 238.95500000000004 334.4210000000001 C 241.84 334.1970000000001 243.71900000000002 333.2980000000001 244.869 331.6110000000001 L 245.618 330.4950000000001 L 245.482 330.4130000000001 C 245.83919067373364 329.38515988835553 246.00525964715524 328.30062781703083 245.972 327.21300000000014 C 245.972 327.0290000000001 245.972 326.83800000000014 245.965 326.64800000000014 C 245.96976196353492 326.4752228792252 245.96073332633503 326.30234119654585 245.93800000000002 326.13100000000014 C 245.69520613309453 324.3854279652434 244.08367249235226 323.16692947354886 242.33800000000002 323.40900000000016 C 241.97000000000003 323.46400000000017 241.58300000000003 323.5090000000002 241.18800000000002 323.55900000000014 L 241.10600000000002 323.56600000000014 C 240.55500000000004 323.6340000000001 240.12600000000003 323.68900000000014 239.86100000000002 323.7160000000001 C 233.96800000000002 324.33500000000015 229.007 324.74400000000014 223.311 323.8590000000001 C 223.07953223834025 323.82105986932237 222.85021649546914 323.7709909298309 222.624 323.7090000000001 L 222.583 323.6950000000001 C 222.474 323.6680000000001 222.37199999999999 323.6340000000001 222.304 323.6130000000001 C 222.12515502896633 323.54677320012325 221.95676453771782 323.45516877288406 221.804 323.3410000000001 C 221.7032256926671 323.2558887772828 221.62000735704225 323.15195077442075 221.559 323.03500000000014 C 221.45444745884367 322.8274440445891 221.3832414942446 322.6047144870754 221.34799999999998 322.3750000000001 L 221.416 305.8110000000001 C 221.37133975352955 304.97690834553913 221.51808286306638 304.14365376551183 221.845 303.3750000000001 C 221.92513142481434 303.22013246152375 222.03368650303628 303.0817247367907 222.165 302.9670000000001 C 222.40557383487996 302.7629376884952 222.68939309160783 302.61624074736716 222.995 302.5380000000001 C 225.2876991536951 301.9556898417217 227.63251742998372 301.6022922300811 229.995 301.4830000000001 C 232.48243777980053 301.3206887152212 234.9770201844269 301.29798641282366 237.467 301.41500000000013 C 238.501 301.4690000000001 239.502 301.53700000000015 240.448 301.63300000000015 C 245.02800000000002 302.08900000000017 246.198 302.83300000000014 246.40300000000002 302.98700000000014 L 246.437 303.02100000000013 C 246.4889030534817 303.07558342402274 246.532380710943 303.13759806722334 246.566 303.20500000000015 C 246.58839909363516 303.26930623951506 246.59989079443486 303.3369044795133 246.6 303.40500000000014 L 246.6 342.67800000000017 C 246.61150504234521 342.93669871816377 246.51811940671053 343.1890923279872 246.341 343.37800000000016 C 245.88209042766505 343.78449058284826 245.32272887700154 344.0607185091019 244.721 344.17800000000017 C 242.49078640199514 344.66350707289297 240.21811133962154 344.92778719436865 237.936 344.96700000000016 C 237.582 344.98100000000017 237.276 344.98800000000017 236.99 344.99400000000014 C 234.0854037065684 345.02468098914306 231.18124764668946 344.89983565967236 228.29000000000002 344.6200000000001 C 227.54800000000003 344.55200000000013 226.949 344.4910000000001 226.39800000000002 344.42900000000014 C 224.69908802106028 344.12113831702123 222.9627009073015 344.7224287018294 221.818 346.01500000000016 C 221.39415683677635 346.51135831842436 221.0601502979765 347.077849651708 220.83100000000002 347.68900000000014 C 220.58587947028843 348.3297946947544 220.40368781321675 348.99291874071395 220.287 349.66900000000015 C 219.90921269320043 351.2519303476439 220.7918204753678 352.863705283835 222.329 353.39800000000014 C 222.71730538429074 353.53631612153754 223.11249901707478 353.65447367728547 223.513 353.7520000000001 C 226.33787133288394 354.3807150852693 229.21936782842096 354.720463625557 232.11299999999997 354.76600000000013 C 232.644 354.78700000000015 233.168 354.8000000000001 233.658 354.80700000000013 C 234.189 354.82100000000014 234.73299999999998 354.82100000000014 235.285 354.82100000000014 C 237.027 354.82100000000014 238.831 354.77300000000014 240.579 354.6850000000001 C 243.02668862948425 354.5744506165028 245.46659454363774 354.33142810925096 247.888 353.9570000000001 C 248.088 353.9300000000001 248.288 353.8890000000001 248.488 353.8570000000001 L 248.549 353.8440000000001 C 251.08204219368105 353.47155330470173 253.51952352113943 352.61424165240584 255.728 351.31900000000013 C 257.8876256785934 350.03043068833676 259.4671976924618 347.95871991096385 260.13800000000003 345.53500000000014 C 260.3802854201274 344.60425884332966 260.4993028120967 343.6457317684585 260.492 342.68400000000014 L 260.492 302.78400000000016 C 260.4925799266406 301.7906596265362 260.3480541725636 300.8025616388721 260.06300000000005 299.85100000000017 C 259.96580230322957 299.5139834339575 259.8485942817267 299.18306278065455 259.712 298.86 Z" stroke-linecap="round" />
</g>
		<g transform="matrix(1 0 0 1 99.66 -18.76)" id="Rectangle_49"  >
<rect style="stroke: none; stroke-width: 1; stroke-dasharray: none; stroke-linecap: butt; stroke-dashoffset: 0; stroke-linejoin: miter; stroke-miterlimit: 4; fill: rgb(90,91,94); fill-rule: nonzero; opacity: 1;" vector-effect="non-scaling-stroke"  x="-7.36" y="-6.8575" rx="0.777" ry="0.777" width="14.72" height="13.715" />
</g>
</g>
</g>
</svg>