<svg xmlns="http://www.w3.org/2000/svg" width="88.526" height="101.081" viewBox="0 0 88.526 101.081"><g transform="translate(0 -0.026)"><path d="M1223.775,1210.726a2.1,2.1,0,0,0,.264-.137l.079-.048,8.245-4.756c1-.574,2-1.16,3.007-1.724a2.367,2.367,0,0,0,.754-.686,2.506,2.506,0,0,0,.452-1.472v-13a1.983,1.983,0,0,0-.055-.495.417.417,0,0,0-.423-.381.748.748,0,0,0-.167.025,2.241,2.241,0,0,0-.473.222c-1.558.891-3.1,1.788-4.665,2.688l-3.966,2.291c-.888.507-1.771,1.021-2.651,1.525a2.206,2.206,0,0,0-.694.595,2.464,2.464,0,0,0-.512,1.519c.009,1.6.009,3.2.009,4.8l-.009,8.3a1.131,1.131,0,0,0,.018.247.823.823,0,0,0,.1.347.324.324,0,0,0,.31.205v.154l.021-.154a1.419,1.419,0,0,0,.357-.071Z" transform="translate(-1178.02 -1144.339)" fill="#754d80"></path><path d="M1222.979,1674.4v6.963a.988.988,0,0,0,.042.255.442.442,0,0,0,.422.36.614.614,0,0,0,.2-.03,1.867,1.867,0,0,0,.351-.164c.272-.15.542-.3.817-.468l3.857-2.227c2.239-1.286,4.463-2.577,6.695-3.866a2.331,2.331,0,0,0,1.21-2.11c.017-.182.017-.369.017-.55l-.017-3.3v-9.133a2.824,2.824,0,0,0-.028-.494.467.467,0,0,0-.441-.439.809.809,0,0,0-.246.049,2.1,2.1,0,0,0-.391.2l-8.839,5.1c-.825.474-1.64.946-2.458,1.416a2.3,2.3,0,0,0-.716.623,2.459,2.459,0,0,0-.482,1.463c.009,1.531.009,3.064.009,4.6v1.758Z" transform="translate(-1178.02 -1598.192)" fill="#754d80"></path><path d="M2038.14,1210.784v.143l.013.043a1.382,1.382,0,0,0,.046.3.436.436,0,0,0,.57.319,1.833,1.833,0,0,0,.469-.221c1.448-.829,2.885-1.659,4.326-2.489l2.722-1.574c1.415-.816,2.818-1.629,4.237-2.438a2.257,2.257,0,0,0,.741-.644,2.372,2.372,0,0,0,.486-1.457c-.009-1.553-.009-3.1-.009-4.652v-8.437a.809.809,0,0,0,0-.259.917.917,0,0,0-.084-.322.359.359,0,0,0-.355-.264h-.047a1.288,1.288,0,0,0-.317.081,1.355,1.355,0,0,0-.259.137l-.084.047-7.781,4.493c-1.155.666-2.3,1.332-3.455,1.994a2.286,2.286,0,0,0-.766.677,2.52,2.52,0,0,0-.452,1.474v13.052Z" transform="translate(-1963.229 -1145.11)" fill="#754d80"></path><path d="M1630.81,1439.325v6.821a1.966,1.966,0,0,0,.033.382.459.459,0,0,0,.608.346,2.573,2.573,0,0,0,.405-.179c.69-.4,1.373-.791,2.065-1.191l3.35-1.938q2.969-1.708,5.937-3.426a2.242,2.242,0,0,0,1.184-2.043q.014-4.792.009-9.589v-3.6a2.446,2.446,0,0,0-.025-.349.476.476,0,0,0-.684-.4,2.39,2.39,0,0,0-.409.206c-1.491.863-2.982,1.716-4.472,2.579l-2.525,1.457q-2.13,1.23-4.251,2.456a2.116,2.116,0,0,0-.728.613,2.352,2.352,0,0,0-.5,1.486v6.361Z" transform="translate(-1570.87 -1371.758)" fill="#754d80"></path><path d="M1236.728,2131.5a.722.722,0,0,0-.013-.167,1.719,1.719,0,0,0-.066-.339.416.416,0,0,0-.4-.3h-.05a1.289,1.289,0,0,0-.311.088,2.406,2.406,0,0,0-.255.134l-.054.043-8.173,4.71c-1.026.591-2.056,1.189-3.078,1.776a2.148,2.148,0,0,0-.675.565,2.354,2.354,0,0,0-.531,1.508v12.751c0,.18-.009.36.009.544a1.327,1.327,0,0,0,.054.356.4.4,0,0,0,.481.289,1.031,1.031,0,0,0,.285-.076,1.431,1.431,0,0,0,.251-.143l6.179-3.563c1.71-.984,3.419-1.977,5.132-2.955a2.386,2.386,0,0,0,.854-.829,2.481,2.481,0,0,0,.364-1.324q-.019-5.419-.013-10.836Z" transform="translate(-1178.161 -2052.362)" fill="#754d80"></path><path d="M2038.14,739.465v.146a2.035,2.035,0,0,0,.039.242.469.469,0,0,0,.438.42.711.711,0,0,0,.26-.058,2.211,2.211,0,0,0,.377-.193q2.2-1.263,4.378-2.525l3.781-2.183c1.031-.594,2.061-1.192,3.091-1.779a2.373,2.373,0,0,0,.771-.666,2.418,2.418,0,0,0,.473-1.466c-.009-1.527-.009-3.068-.009-4.6v-8.614a1.794,1.794,0,0,0-.051-.365.439.439,0,0,0-.414-.334.654.654,0,0,0-.189.03,2.556,2.556,0,0,0-.448.214q-2.4,1.38-4.808,2.771l-3.206,1.855c-1.08.624-2.169,1.249-3.253,1.877a2.344,2.344,0,0,0-.851.786,2.478,2.478,0,0,0-.381,1.353v13.09Z" transform="translate(-1963.229 -691.094)" fill="#754d80"></path><path d="M1630.569,974.661a3.236,3.236,0,0,0,.013.356.485.485,0,0,0,.711.435,2.778,2.778,0,0,0,.377-.2c1.251-.716,2.5-1.439,3.748-2.156l2.855-1.654q2.326-1.345,4.648-2.677a2.377,2.377,0,0,0,1.24-2.1c-.009-1.6-.009-3.2-.009-4.807v-8.278a1.884,1.884,0,0,0-.008-.309.922.922,0,0,0-.064-.281.4.4,0,0,0-.384-.276.452.452,0,0,0-.126.017,2.025,2.025,0,0,0-.485.214q-3.051,1.758-6.114,3.521l-1.99,1.152c-1.075.62-2.139,1.24-3.214,1.85a2.435,2.435,0,0,0-.737.649,2.5,2.5,0,0,0-.47,1.5c.009,2.981.009,5.972.009,8.957v4.078Z" transform="translate(-1570.629 -917.678)" fill="#754d80"></path><path d="M1644.333,1896.946c0-.246,0-.486,0-.728a1.541,1.541,0,0,0-.058-.4.4.4,0,0,0-.412-.309c-.029,0-.074,0-.113,0a2.107,2.107,0,0,0-.288.1c-.071.038-.144.08-.2.121l-.182.1-7.37,4.26c-1.243.715-2.488,1.439-3.739,2.156a2.389,2.389,0,0,0-.829.759,2.441,2.441,0,0,0-.4,1.381v13.076a1.894,1.894,0,0,0,.017.31.85.85,0,0,0,.071.248.367.367,0,0,0,.367.255h.039a1.28,1.28,0,0,0,.318-.076,2.324,2.324,0,0,0,.293-.163l.05-.025,6.558-3.787c1.557-.891,3.1-1.792,4.661-2.687a2.162,2.162,0,0,0,.7-.587,2.389,2.389,0,0,0,.524-1.512q-.006-2.462,0-4.919v-7.576Z" transform="translate(-1570.803 -1825.816)" fill="#754d80"></path><path d="M2051.78,1661.024a1.309,1.309,0,0,0,0-.255,1.476,1.476,0,0,0-.059-.289.422.422,0,0,0-.423-.3.662.662,0,0,0-.126.012,1.427,1.427,0,0,0-.434.192l-6.421,3.706c-1.638.955-3.283,1.9-4.92,2.843a2.416,2.416,0,0,0-1.218,2.148v13.2l.012.067a1.635,1.635,0,0,0,.051.285.4.4,0,0,0,.411.317h.049a1.215,1.215,0,0,0,.315-.083,1.776,1.776,0,0,0,.234-.127l.079-.049,7.865-4.535c1.114-.649,2.231-1.289,3.345-1.938a2.593,2.593,0,0,0,.52-.368,2.39,2.39,0,0,0,.733-1.722c-.013-1.587-.013-3.179-.013-4.77v-8.333Z" transform="translate(-1963.267 -1599.135)" fill="#754d80"></path><path d="M847.6,478.506a.49.49,0,0,0,.167.348,2.5,2.5,0,0,0,.373.263c.561.335,1.148.666,1.722,1l3.662,2.114q2.973,1.714,5.963,3.433a2.226,2.226,0,0,0,2.357.008q5.346-3.076,10.686-6.168l.733-.427a3.143,3.143,0,0,0,.291-.187.545.545,0,0,0,.21-.4.524.524,0,0,0-.21-.4,3.882,3.882,0,0,0-.372-.242l-5.724-3.3q-2.763-1.6-5.541-3.2a2.3,2.3,0,0,0-.891-.322,2.472,2.472,0,0,0-1.538.305q-2.1,1.232-4.211,2.442l-1.349.778-4.618,2.668c-.411.238-.833.477-1.231.715a1.694,1.694,0,0,0-.318.221.5.5,0,0,0-.164.348Z" transform="translate(-816.447 -453.673)" fill="#8b6b95"></path><path d="M440.462,243.887c.234.143.473.272.7.411l4.066,2.344c2.2,1.273,4.392,2.542,6.6,3.811a2.341,2.341,0,0,0,2.437,0c.146-.083.3-.171.452-.259l4.451-2.575,6.339-3.664a3.114,3.114,0,0,0,.411-.277.536.536,0,0,0,.214-.4.507.507,0,0,0-.218-.385,2.259,2.259,0,0,0-.388-.255l-8.642-5c-.885-.5-1.761-1.014-2.631-1.521a2.256,2.256,0,0,0-.9-.3c-.1-.009-.2-.013-.293-.013a2.292,2.292,0,0,0-1.214.326c-1.344.783-2.7,1.557-4.049,2.341l-7.282,4.208a1.047,1.047,0,0,0-.2.118,1.236,1.236,0,0,0-.206.163.518.518,0,0,0-.155.36.527.527,0,0,0,.185.343,1.559,1.559,0,0,0,.314.218Z" transform="translate(-423.791 -227.118)" fill="#8b6b95"></path><path d="M58.02,479.242a.405.405,0,0,0,.03-.537,1.089,1.089,0,0,0-.23-.229c-.071-.051-.148-.1-.217-.139l-2.212-1.274c-1.494-.862-3-1.73-4.5-2.6-1.546-.883-3.078-1.771-4.624-2.667a2.157,2.157,0,0,0-.821-.3,3.385,3.385,0,0,0-.389-.028,2.338,2.338,0,0,0-1.193.317q-1.865,1.088-3.731,2.161l-7.312,4.222c-.155.087-.309.179-.46.276a1.1,1.1,0,0,0-.281.23.412.412,0,0,0-.009.561.881.881,0,0,0,.215.2,1.993,1.993,0,0,0,.261.167l.036.017q1.564.906,3.116,1.8l3.391,1.955q2.369,1.365,4.74,2.744a2.386,2.386,0,0,0,1.152.325h.058A2.447,2.447,0,0,0,46.3,486.1q4.623-2.67,9.242-5.342l2.073-1.193a.663.663,0,0,0,.146-.093,1.14,1.14,0,0,0,.255-.225Z" transform="translate(-30.794 -454.116)" fill="#8b6b95"></path><path d="M1280.983,714.338a1.265,1.265,0,0,0,.24-.225.383.383,0,0,0,.021-.482.89.89,0,0,0-.223-.234,1.8,1.8,0,0,0-.243-.159l-.088-.05-8.059-4.656c-1.063-.612-2.119-1.227-3.179-1.838a2.2,2.2,0,0,0-.972-.31,1.277,1.277,0,0,0-.225-.013,2.47,2.47,0,0,0-1.27.347q-4.271,2.475-8.541,4.937l-2.772,1.6a.54.54,0,0,0-.109.067l-.054.029c-.076.064-.15.122-.217.189a.427.427,0,0,0,.013.649,2.4,2.4,0,0,0,.422.3q2.291,1.321,4.564,2.639l2.2,1.265q2.254,1.3,4.509,2.609a2.284,2.284,0,0,0,.929.322,2.389,2.389,0,0,0,1.5-.31c1.407-.817,2.821-1.63,4.221-2.442l7.106-4.1a1.459,1.459,0,0,0,.231-.138Z" transform="translate(-1209.014 -680.383)" fill="#8b6b95"></path><path d="M1688.692,478.628a1.216,1.216,0,0,0,.285-.23.42.42,0,0,0-.033-.67,2.274,2.274,0,0,0-.4-.281q-3.253-1.885-6.519-3.768l-1.621-.929c-1.034-.608-2.093-1.206-3.128-1.814a2.391,2.391,0,0,0-1.109-.335h-.109a2.422,2.422,0,0,0-1.251.339q-4.792,2.771-9.585,5.54l-1.747,1.01a1.508,1.508,0,0,0-.131.079,2.029,2.029,0,0,0-.188.146.578.578,0,0,0-.214.4.6.6,0,0,0,.243.389,2.52,2.52,0,0,0,.364.234l7.381,4.258c1.29.746,2.581,1.487,3.857,2.236a2.494,2.494,0,0,0,.964.332,2.555,2.555,0,0,0,1.5-.322q2.046-1.188,4.09-2.371l6.785-3.911c.188-.113.377-.221.565-.334Z" transform="translate(-1601.819 -453.278)" fill="#8b6b95"></path><path d="M872.911,950.024c.088-.075.164-.139.221-.2a.441.441,0,0,0-.025-.617,1.559,1.559,0,0,0-.4-.287c-1.609-.925-3.191-1.842-4.779-2.755l-1.624-.934c-1.636-.951-3.285-1.9-4.923-2.859a2.441,2.441,0,0,0-1.219-.324,2.837,2.837,0,0,0-.368.026,2.432,2.432,0,0,0-.892.326l-.293.172q-5.484,3.171-10.955,6.327l-.062.037a.962.962,0,0,0-.118.071,2.1,2.1,0,0,0-.272.221.415.415,0,0,0-.041.561,1.339,1.339,0,0,0,.225.23c.077.058.156.092.234.143l.072.037c1.938,1.126,3.884,2.245,5.819,3.363l1.893,1.092c1.168.67,2.333,1.347,3.5,2.018a2.344,2.344,0,0,0,2.43.034q2.155-1.249,4.313-2.5l7.023-4.052C872.756,950.116,872.832,950.074,872.911,950.024Z" transform="translate(-815.939 -907.4)" fill="#8b6b95"></path><path d="M1255.59,242.742a.55.55,0,0,0,.234.415,1.691,1.691,0,0,0,.343.217c1.056.62,2.116,1.227,3.153,1.826l3.911,2.258,4.2,2.424a2.5,2.5,0,0,0,.991.34,2.5,2.5,0,0,0,1.433-.309c1.416-.826,2.821-1.638,4.233-2.446l7.111-4.108c.088-.051.176-.105.259-.164a.986.986,0,0,0,.214-.2.409.409,0,0,0-.042-.574,1.887,1.887,0,0,0-.42-.309q-3.033-1.764-6.071-3.5l-2.4-1.394-2.843-1.637a2.4,2.4,0,0,0-.921-.319c-.092-.005-.176-.009-.264-.009a2.512,2.512,0,0,0-1.276.356c-2.823,1.643-5.657,3.27-8.48,4.907l-2.8,1.617a2.965,2.965,0,0,0-.305.193.584.584,0,0,0-.251.419Z" transform="translate(-1209.441 -226.579)" fill="#8b6b95"></path><path d="M848.255,7.973a.958.958,0,0,0,.246.158l.076.047,8.638,4.991c.868.5,1.742,1.006,2.609,1.508a2.253,2.253,0,0,0,.963.314,2.526,2.526,0,0,0,1.5-.343c2.006-1.155,4-2.315,6.01-3.471l3.29-1.9c.653-.376,1.3-.749,1.952-1.131a2.211,2.211,0,0,0,.405-.284.469.469,0,0,0,.177-.348.514.514,0,0,0-.164-.351,3.112,3.112,0,0,0-.427-.3q-3.07-1.77-6.121-3.538l-2.487-1.432c-.884-.516-1.78-1.031-2.673-1.545a2.086,2.086,0,0,0-.862-.3,2.388,2.388,0,0,0-1.566.314q-1.972,1.148-3.945,2.283l-1.625.933-.076.045-5.7,3.292a1.013,1.013,0,0,0-.209.134,1.249,1.249,0,0,0-.258.264.34.34,0,0,0,0,.394,1.1,1.1,0,0,0,.246.268Z" transform="translate(-816.782)" fill="#8b6b95"></path><path d="M465.241,714.782a1.471,1.471,0,0,0,.322-.246.437.437,0,0,0-.008-.613,1.726,1.726,0,0,0-.23-.2c-.067-.043-.133-.084-.206-.127l-.1-.054-7.14-4.124c-1.358-.771-2.7-1.549-4.037-2.335a2.426,2.426,0,0,0-1.076-.332,1.108,1.108,0,0,0-.137-.006,2.431,2.431,0,0,0-1.257.348c-2.759,1.6-5.532,3.2-8.287,4.789l-2.994,1.734a2.512,2.512,0,0,0-.305.188.684.684,0,0,0-.18.185.375.375,0,0,0-.008.477,1.17,1.17,0,0,0,.218.238c.083.058.171.114.259.163l.081.046q2.719,1.566,5.442,3.141l1.78,1.026q2,1.148,3.982,2.306a2.454,2.454,0,0,0,.863.311,2.4,2.4,0,0,0,1.57-.306q2.141-1.244,4.288-2.478l6.541-3.774c.2-.122.409-.238.619-.364Z" transform="translate(-423.361 -680.749)" fill="#8b6b95"></path><path d="M12.386,724.221q-1.671-.948-3.324-1.913L6.9,721.064Q4,719.388,1.1,717.723a2.323,2.323,0,0,0-.436-.209.577.577,0,0,0-.193-.034.432.432,0,0,0-.415.336,1.6,1.6,0,0,0-.042.364c-.017.234-.008.461-.008.694v7.818c0,1.57.008,3.137-.009,4.7a2.489,2.489,0,0,0,.473,1.46,2.307,2.307,0,0,0,.774.671c.964.557,1.936,1.114,2.9,1.67l3.32,1.922q2.512,1.444,5.024,2.894a3.937,3.937,0,0,0,.382.2.782.782,0,0,0,.26.054c.284,0,.393-.23.443-.422a1.422,1.422,0,0,0,.028-.236c.005-.053.005-.1.005-.158V726.365a2.406,2.406,0,0,0-.384-1.348,2.373,2.373,0,0,0-.838-.8Z" transform="translate(0 -691.084)" fill="#663a74"></path><path d="M13.678,1197.818a2.471,2.471,0,0,0-.452-1.469,2.381,2.381,0,0,0-.762-.684q-1.572-.9-3.132-1.808l-1.064-.608q-3.523-2.033-7.047-4.065l-.075-.047A1.447,1.447,0,0,0,.88,1189a1.2,1.2,0,0,0-.319-.079H.522a.38.38,0,0,0-.368.263,1.041,1.041,0,0,0-.072.322,1.781,1.781,0,0,0-.012.25l.009.106L.07,1196.5l.009,1.7c0,1.549,0,3.1-.009,4.656a2.423,2.423,0,0,0,.486,1.454,2.371,2.371,0,0,0,.737.645q2.468,1.407,4.913,2.83l1.972,1.13c1.465.85,2.926,1.7,4.4,2.542a1.993,1.993,0,0,0,.469.218.436.436,0,0,0,.569-.313,1.911,1.911,0,0,0,.064-.49v-13.052Z" transform="translate(-0.067 -1145.197)" fill="#663a74"></path><path d="M13.452,1668.108a2.4,2.4,0,0,0-1.046-1.214q-2.443-1.4-4.862-2.806l-6.456-3.727a1.443,1.443,0,0,0-.464-.208.648.648,0,0,0-.131-.013.41.41,0,0,0-.407.3.775.775,0,0,0-.066.285,2.494,2.494,0,0,0-.009.259v8.186q.014,2.462,0,4.915a2.345,2.345,0,0,0,.733,1.722,2.752,2.752,0,0,0,.511.368c1.052.608,2.09,1.215,3.14,1.819l8.15,4.707a1.659,1.659,0,0,0,.234.124,1.161,1.161,0,0,0,.317.085h.047a.4.4,0,0,0,.413-.319,1.277,1.277,0,0,0,.055-.293l.005-.051c0-.051,0-.1,0-.145l0-.064q0-6.5,0-13a2.251,2.251,0,0,0-.167-.933Z" transform="translate(-0.01 -1599.097)" fill="#663a74"></path><path d="M828.64,1210.625a1.622,1.622,0,0,0,.105-.347,1.594,1.594,0,0,0,0-.247l0-.1v-8.293c0-1.565,0-3.14.013-4.711a2.476,2.476,0,0,0-.52-1.523,2.188,2.188,0,0,0-.7-.587c-.9-.52-1.792-1.039-2.7-1.557l-3.673-2.114q-2.448-1.421-4.911-2.836a1.97,1.97,0,0,0-.474-.218.636.636,0,0,0-.167-.029.438.438,0,0,0-.427.38,2.5,2.5,0,0,0-.045.5v4.932q0,4.04-.009,8.066a2.468,2.468,0,0,0,.461,1.469,2.2,2.2,0,0,0,.758.682c1.03.591,2.06,1.191,3.095,1.784l8.22,4.744a1.428,1.428,0,0,0,.271.143,1.343,1.343,0,0,0,.353.071l.025.156v-.156a.337.337,0,0,0,.319-.2Z" transform="translate(-785.18 -1144.368)" fill="#663a74"></path><path d="M420.049,959.423c-1.185-.673-2.366-1.36-3.551-2.043l-2.546-1.47q-2.608-1.508-5.218-3.011a2.138,2.138,0,0,0-.477-.21.516.516,0,0,0-.139-.019.409.409,0,0,0-.385.28.951.951,0,0,0-.062.28,1.954,1.954,0,0,0-.006.29V961.7c0,1.643,0,3.284-.017,4.916a2.4,2.4,0,0,0,1.249,2.1q2.579,1.481,5.172,2.982l1.826,1.054c1.419.816,2.829,1.632,4.25,2.45a3.1,3.1,0,0,0,.38.192.482.482,0,0,0,.711-.432c.009-.117.009-.242.009-.355l.009-4.343v-8.7a2.456,2.456,0,0,0-.469-1.5,2.363,2.363,0,0,0-.737-.653Z" transform="translate(-392.667 -917.63)" fill="#663a74"></path><path d="M420.195,1430.741c-1.172-.677-2.354-1.357-3.525-2.031l-2.024-1.163q-2.844-1.646-5.695-3.292a3.475,3.475,0,0,0-.415-.212.792.792,0,0,0-.226-.043.469.469,0,0,0-.459.444,2.557,2.557,0,0,0-.022.343v1.881c0,3.773-.008,7.537.008,11.308a2.231,2.231,0,0,0,1.185,2.044q3.16,1.827,6.333,3.656l3.236,1.867q.885.515,1.776,1.022a2.487,2.487,0,0,0,.411.193.459.459,0,0,0,.606-.353,1.671,1.671,0,0,0,.029-.373c.005-.456.005-.9.005-1.355v-7.057c0-1.587,0-3.186.008-4.779a2.377,2.377,0,0,0-1.231-2.1Z" transform="translate(-392.838 -1371.636)" fill="#663a74"></path><path d="M828.8,1668.093a2.414,2.414,0,0,0-.486-1.461,2.218,2.218,0,0,0-.711-.62c-.771-.444-1.55-.889-2.328-1.341l-8.945-5.159a2.759,2.759,0,0,0-.415-.214.7.7,0,0,0-.242-.049.464.464,0,0,0-.443.436,2.443,2.443,0,0,0-.034.494l-.005,12.438v.551a2.34,2.34,0,0,0,1.219,2.11q3.636,2.1,7.269,4.2l3.216,1.851c.289.177.59.34.888.507a1.783,1.783,0,0,0,.343.165.622.622,0,0,0,.2.033.446.446,0,0,0,.422-.361.954.954,0,0,0,.042-.259,2.022,2.022,0,0,0,0-.236v-8.305c0-1.588,0-3.184.009-4.779Z" transform="translate(-785.228 -1598.24)" fill="#663a74"></path><path d="M420.043,1902.172c-1.218-.7-2.429-1.4-3.652-2.1l-7.629-4.409a1.594,1.594,0,0,0-.218-.118,1.238,1.238,0,0,0-.285-.1,1.211,1.211,0,0,0-.122-.013.409.409,0,0,0-.4.313,1.529,1.529,0,0,0-.058.4c-.008.251-.008.5-.008.75v7.663c0,1.6.008,3.208,0,4.807a2.4,2.4,0,0,0,.527,1.516,2.29,2.29,0,0,0,.7.586l4.652,2.689,2.283,1.311q2.136,1.238,4.279,2.472l.054.033a2.2,2.2,0,0,0,.293.154,1.042,1.042,0,0,0,.317.074h.047a.357.357,0,0,0,.36-.25.6.6,0,0,0,.067-.242,2.829,2.829,0,0,0,.012-.315v-4.783q0-4.145.013-8.3a2.5,2.5,0,0,0-.4-1.377,2.341,2.341,0,0,0-.829-.758Z" transform="translate(-392.686 -1825.739)" fill="#663a74"></path><path d="M828.313,2138.072a2.318,2.318,0,0,0-.666-.565c-1.026-.591-2.06-1.186-3.082-1.772l-8.228-4.753a2.51,2.51,0,0,0-.255-.134.964.964,0,0,0-.311-.088h-.051a.4.4,0,0,0-.4.294,1.311,1.311,0,0,0-.066.3c0,.093,0,.148,0,.206v13.065a2.423,2.423,0,0,0,.355,1.323,2.321,2.321,0,0,0,.854.829c1.692.972,3.376,1.947,5.068,2.923l6.234,3.6a2.236,2.236,0,0,0,.259.143,1.175,1.175,0,0,0,.285.081.428.428,0,0,0,.482-.3,1.25,1.25,0,0,0,.062-.352c.005-.176,0-.36,0-.531v-7.957q0-2.4.005-4.8a2.409,2.409,0,0,0-.54-1.512Z" transform="translate(-785.286 -2052.419)" fill="#663a74"></path></g></svg>